<svg width="150" height="111" viewBox="0 0 150 111" fill="none" xmlns="http://www.w3.org/2000/svg">
<path d="M146.663 46.9803L95.9637 50.1769C94.8873 52.297 93.6043 54.2432 92.1147 56.0046L147.022 52.5471C148.555 52.4493 149.729 51.1228 149.631 49.5897C149.533 48.0567 148.218 46.8825 146.674 46.9803H146.663Z" fill="black"/>
<path d="M46.8083 47.6766C45.1883 47.4374 11.8962 42.5339 1.78468 37.9021C5.28567 52.4497 19.5723 61.648 44.2968 65.2686C73.7943 69.5741 86.8632 60.5607 92.6475 51.2102C81.5465 52.7107 48.4175 47.9049 46.8083 47.6766Z" fill="#FBDE3F"/>
<path d="M6.6013 35.3796C6.38384 36.8909 24.6173 40.8051 47.3303 44.1212C70.0432 47.4374 88.6355 48.9052 88.8529 47.3939C89.0704 45.8826 70.8369 41.9684 48.124 38.6523C25.411 35.3361 6.81875 33.8683 6.6013 35.3796Z" fill="url(#paint0_linear_433_1334)"/>
<path d="M10.3525 25.4964C12.2861 25.4964 13.8535 23.9289 13.8535 21.9954C13.8535 20.0618 12.2861 18.4944 10.3525 18.4944C8.41898 18.4944 6.85153 20.0618 6.85153 21.9954C6.85153 23.9289 8.41898 25.4964 10.3525 25.4964Z" fill="#4CAF50"/>
<path d="M94.8656 34.9994C94.8656 36.2389 93.8545 37.2501 92.615 37.2501C91.3755 37.2501 90.3643 36.2389 90.3643 34.9994C90.3643 33.7599 91.3755 32.7488 92.615 32.7488C93.8545 32.7488 94.8656 33.7599 94.8656 34.9994Z" fill="#FF0000"/>
<path d="M26.3027 30.5087C26.3027 31.7482 25.2916 32.7593 24.0521 32.7593C22.8126 32.7593 21.8015 31.7482 21.8015 30.5087C21.8015 29.2692 22.8126 28.2581 24.0521 28.2581C25.2916 28.2581 26.3027 29.2692 26.3027 30.5087Z" fill="#B617B9"/>
<path d="M80.8508 20.7448C81.8596 20.7448 82.6774 19.927 82.6774 18.9182C82.6774 17.9094 81.8596 17.0916 80.8508 17.0916C79.842 17.0916 79.0242 17.9094 79.0242 18.9182C79.0242 19.927 79.842 20.7448 80.8508 20.7448Z" fill="#FF3D00"/>
<path d="M47.7545 3.501C47.7545 5.43633 46.1888 7.00199 44.2535 7.00199C42.3182 7.00199 40.7525 5.43633 40.7525 3.501C40.7525 1.56566 42.3182 0 44.2535 0C46.1888 0 47.7545 1.56566 47.7545 3.501Z" fill="#FFCF5A"/>
<path d="M69.4018 28.5628L67.3904 28.6606C67.2273 28.6606 67.075 28.7585 66.9881 28.8998L65.9443 30.6286C65.7268 30.9874 65.1941 30.9439 65.0419 30.5416L64.3243 28.6606C64.2699 28.5084 64.1286 28.3888 63.9655 28.3453L62.0084 27.8886C61.5952 27.7908 61.4756 27.2689 61.8127 27.008L63.3783 25.7467C63.5088 25.638 63.574 25.4749 63.5632 25.3118L63.3892 23.3004C63.3566 22.8872 63.8132 22.6045 64.1612 22.8329L65.8464 23.9419C65.9878 24.0289 66.1617 24.0506 66.314 23.9854L68.1732 23.2025C68.5646 23.0394 68.9669 23.3982 68.8582 23.8005L68.3254 25.7467C68.2819 25.9098 68.3254 26.0838 68.4341 26.2034L69.7497 27.7256C70.0215 28.0409 69.815 28.541 69.3909 28.5519L69.4018 28.5628Z" fill="#06C167"/>
<path d="M43.4595 15.1131L42.5028 17.5921C42.4266 17.7986 42.4484 18.027 42.5789 18.2118L44.101 20.3863C44.4163 20.843 44.0793 21.4627 43.5248 21.4301L40.8719 21.2888C40.6544 21.2779 40.4369 21.3757 40.3065 21.5497L38.7082 23.6699C38.3711 24.1156 37.6753 23.9743 37.5339 23.4415L36.849 20.8756C36.7946 20.6581 36.6315 20.4951 36.4249 20.4189L33.9134 19.56C33.3915 19.3752 33.3045 18.6793 33.772 18.3749L36.0009 16.9397C36.1857 16.8201 36.3053 16.6135 36.3053 16.3961L36.3488 13.7431C36.3488 13.1886 37.0012 12.8951 37.4252 13.243L39.4802 14.9174C39.6541 15.0587 39.8824 15.1022 40.089 15.037L42.6223 14.265C43.1551 14.1019 43.6335 14.6238 43.4378 15.1348L43.4595 15.1131Z" fill="#FF3D00"/>
<path d="M5.83927 103.877C4.92257 103.877 4.09377 103.72 3.35287 103.406C2.62453 103.092 2.04689 102.64 1.61993 102.05C1.19297 101.46 0.973212 100.763 0.960655 99.9593H3.78611C3.82378 100.499 4.01215 100.926 4.3512 101.24C4.70281 101.554 5.18 101.711 5.78276 101.711C6.39809 101.711 6.88155 101.567 7.23316 101.278C7.58478 100.976 7.76058 100.587 7.76058 100.11C7.76058 99.7207 7.64129 99.4004 7.40269 99.1493C7.1641 98.8981 6.86272 98.7035 6.49855 98.5654C6.14693 98.4147 5.65719 98.2514 5.02931 98.0756C4.17539 97.8245 3.47845 97.5796 2.93847 97.341C2.41105 97.0898 1.9527 96.7194 1.56342 96.2297C1.18669 95.7273 0.998327 95.0618 0.998327 94.233C0.998327 93.4544 1.19297 92.7763 1.58225 92.1987C1.97154 91.621 2.51779 91.1815 3.22102 90.8801C3.92424 90.5662 4.72793 90.4092 5.63207 90.4092C6.98829 90.4092 8.08708 90.742 8.92844 91.4075C9.78235 92.0605 10.2533 92.9772 10.3412 94.1577H7.44036C7.41525 93.7056 7.22061 93.3351 6.85644 93.0463C6.50483 92.7449 6.03392 92.5942 5.44371 92.5942C4.92885 92.5942 4.51445 92.7261 4.20051 92.9898C3.89913 93.2535 3.74844 93.6365 3.74844 94.1388C3.74844 94.4904 3.86146 94.7855 4.08749 95.0241C4.32609 95.2502 4.61491 95.4385 4.95396 95.5892C5.30558 95.7273 5.79532 95.8906 6.4232 96.079C7.27712 96.3301 7.97406 96.5813 8.51404 96.8324C9.05401 97.0836 9.51864 97.4603 9.90793 97.9626C10.2972 98.4649 10.4919 99.1242 10.4919 99.9404C10.4919 100.644 10.3098 101.297 9.9456 101.899C9.58143 102.502 9.04773 102.986 8.34451 103.35C7.64129 103.701 6.80621 103.877 5.83927 103.877ZM14.9443 90.5976V98.7349C14.9443 99.6265 15.1766 100.311 15.6412 100.788C16.1059 101.253 16.7589 101.485 17.6002 101.485C18.4541 101.485 19.1134 101.253 19.578 100.788C20.0427 100.311 20.275 99.6265 20.275 98.7349V90.5976H22.9309V98.7161C22.9309 99.8337 22.686 100.782 22.1963 101.56C21.7191 102.326 21.0724 102.904 20.2562 103.293C19.4525 103.683 18.5546 103.877 17.5626 103.877C16.5831 103.877 15.6915 103.683 14.8878 103.293C14.0967 102.904 13.4688 102.326 13.0042 101.56C12.5395 100.782 12.3072 99.8337 12.3072 98.7161V90.5976H14.9443ZM34.6333 94.6662C34.6333 95.3695 34.4638 96.0287 34.1247 96.6441C33.7982 97.2594 33.2771 97.7554 32.5613 98.1321C31.8581 98.5089 30.9665 98.6972 29.8865 98.6972H27.6827V103.745H25.0456V90.5976H29.8865C30.9037 90.5976 31.7702 90.7734 32.486 91.125C33.2017 91.4766 33.7354 91.9601 34.0871 92.5754C34.4512 93.1907 34.6333 93.8877 34.6333 94.6662ZM29.7735 96.5687C30.5019 96.5687 31.0418 96.4055 31.3935 96.079C31.7451 95.7399 31.9209 95.269 31.9209 94.6662C31.9209 93.3854 31.2051 92.7449 29.7735 92.7449H27.6827V96.5687H29.7735ZM38.7095 92.7261V96.0225H43.136V98.1133H38.7095V101.598H43.7011V103.745H36.0724V90.5787H43.7011V92.7261H38.7095ZM52.4454 103.745L49.5446 98.6219H48.3014V103.745H45.6644V90.5976H50.5995C51.6166 90.5976 52.4831 90.7797 53.1989 91.1438C53.9147 91.4954 54.4484 91.9789 54.8 92.5942C55.1642 93.197 55.3462 93.8751 55.3462 94.6286C55.3462 95.495 55.0951 96.2799 54.5928 96.9831C54.0905 97.6738 53.3433 98.151 52.3513 98.4147L55.4969 103.745H52.4454ZM48.3014 96.6441H50.5053C51.2211 96.6441 51.7548 96.4745 52.1064 96.1355C52.458 95.7839 52.6338 95.3004 52.6338 94.6851C52.6338 94.0823 52.458 93.6177 52.1064 93.2912C51.7548 92.9521 51.2211 92.7826 50.5053 92.7826H48.3014V96.6441ZM69.4718 90.5976V92.7261H63.9904V96.0978H68.1909V98.1886H63.9904V103.745H61.3533V90.5976H69.4718ZM77.0114 103.877C75.7808 103.877 74.6506 103.588 73.6209 103.011C72.5912 102.433 71.7749 101.636 71.1722 100.619C70.5694 99.5888 70.268 98.4272 70.268 97.1338C70.268 95.8529 70.5694 94.7039 71.1722 93.6867C71.7749 92.657 72.5912 91.8533 73.6209 91.2757C74.6506 90.698 75.7808 90.4092 77.0114 90.4092C78.2546 90.4092 79.3848 90.698 80.402 91.2757C81.4317 91.8533 82.2417 92.657 82.8319 93.6867C83.4346 94.7039 83.736 95.8529 83.736 97.1338C83.736 98.4272 83.4346 99.5888 82.8319 100.619C82.2417 101.636 81.4317 102.433 80.402 103.011C79.3723 103.588 78.2421 103.877 77.0114 103.877ZM77.0114 101.523C77.8026 101.523 78.4995 101.347 79.1023 100.995C79.705 100.631 80.176 100.116 80.515 99.4507C80.8541 98.7851 81.0236 98.0128 81.0236 97.1338C81.0236 96.2548 80.8541 95.4888 80.515 94.8358C80.176 94.1702 79.705 93.6616 79.1023 93.31C78.4995 92.9584 77.8026 92.7826 77.0114 92.7826C76.2203 92.7826 75.5171 92.9584 74.9018 93.31C74.299 93.6616 73.8281 94.1702 73.489 94.8358C73.15 95.4888 72.9805 96.2548 72.9805 97.1338C72.9805 98.0128 73.15 98.7851 73.489 99.4507C73.8281 100.116 74.299 100.631 74.9018 100.995C75.5171 101.347 76.2203 101.523 77.0114 101.523ZM91.3677 103.877C90.1371 103.877 89.0069 103.588 87.9772 103.011C86.9474 102.433 86.1312 101.636 85.5284 100.619C84.9257 99.5888 84.6243 98.4272 84.6243 97.1338C84.6243 95.8529 84.9257 94.7039 85.5284 93.6867C86.1312 92.657 86.9474 91.8533 87.9772 91.2757C89.0069 90.698 90.1371 90.4092 91.3677 90.4092C92.6109 90.4092 93.7411 90.698 94.7582 91.2757C95.788 91.8533 96.5979 92.657 97.1881 93.6867C97.7909 94.7039 98.0923 95.8529 98.0923 97.1338C98.0923 98.4272 97.7909 99.5888 97.1881 100.619C96.5979 101.636 95.788 102.433 94.7582 103.011C93.7285 103.588 92.5983 103.877 91.3677 103.877ZM91.3677 101.523C92.1588 101.523 92.8558 101.347 93.4585 100.995C94.0613 100.631 94.5322 100.116 94.8713 99.4507C95.2103 98.7851 95.3798 98.0128 95.3798 97.1338C95.3798 96.2548 95.2103 95.4888 94.8713 94.8358C94.5322 94.1702 94.0613 93.6616 93.4585 93.31C92.8558 92.9584 92.1588 92.7826 91.3677 92.7826C90.5766 92.7826 89.8734 92.9584 89.258 93.31C88.6553 93.6616 88.1844 94.1702 87.8453 94.8358C87.5062 95.4888 87.3367 96.2548 87.3367 97.1338C87.3367 98.0128 87.5062 98.7851 87.8453 99.4507C88.1844 100.116 88.6553 100.631 89.258 100.995C89.8734 101.347 90.5766 101.523 91.3677 101.523ZM104.217 90.5976C105.598 90.5976 106.81 90.8676 107.852 91.4075C108.907 91.9475 109.717 92.7198 110.282 93.7244C110.86 94.7165 111.149 95.8718 111.149 97.1903C111.149 98.5089 110.86 99.6641 110.282 100.656C109.717 101.636 108.907 102.395 107.852 102.935C106.81 103.475 105.598 103.745 104.217 103.745H99.621V90.5976H104.217ZM104.123 101.504C105.504 101.504 106.572 101.127 107.325 100.374C108.079 99.6202 108.455 98.5591 108.455 97.1903C108.455 95.8215 108.079 94.7541 107.325 93.9881C106.572 93.2096 105.504 92.8203 104.123 92.8203H102.258V101.504H104.123ZM118.793 103.877C117.562 103.877 116.432 103.588 115.402 103.011C114.372 102.433 113.556 101.636 112.953 100.619C112.351 99.5888 112.049 98.4272 112.049 97.1338C112.049 95.8529 112.351 94.7039 112.953 93.6867C113.556 92.657 114.372 91.8533 115.402 91.2757C116.432 90.698 117.562 90.4092 118.793 90.4092C120.036 90.4092 121.166 90.698 122.183 91.2757C123.213 91.8533 124.023 92.657 124.613 93.6867C125.216 94.7039 125.517 95.8529 125.517 97.1338C125.517 98.4272 125.216 99.5888 124.613 100.619C124.023 101.636 123.213 102.433 122.183 103.011C121.153 103.588 120.023 103.877 118.793 103.877ZM118.793 101.523C119.584 101.523 120.281 101.347 120.883 100.995C121.486 100.631 121.957 100.116 122.296 99.4507C122.635 98.7851 122.805 98.0128 122.805 97.1338C122.805 96.2548 122.635 95.4888 122.296 94.8358C121.957 94.1702 121.486 93.6616 120.883 93.31C120.281 92.9584 119.584 92.7826 118.793 92.7826C118.001 92.7826 117.298 92.9584 116.683 93.31C116.08 93.6616 115.609 94.1702 115.27 94.8358C114.931 95.4888 114.762 96.2548 114.762 97.1338C114.762 98.0128 114.931 98.7851 115.27 99.4507C115.609 100.116 116.08 100.631 116.683 100.995C117.298 101.347 118.001 101.523 118.793 101.523ZM133.149 103.877C131.918 103.877 130.788 103.588 129.758 103.011C128.729 102.433 127.912 101.636 127.31 100.619C126.707 99.5888 126.405 98.4272 126.405 97.1338C126.405 95.8529 126.707 94.7039 127.31 93.6867C127.912 92.657 128.729 91.8533 129.758 91.2757C130.788 90.698 131.918 90.4092 133.149 90.4092C134.392 90.4092 135.522 90.698 136.539 91.2757C137.569 91.8533 138.379 92.657 138.969 93.6867C139.572 94.7039 139.873 95.8529 139.873 97.1338C139.873 98.4272 139.572 99.5888 138.969 100.619C138.379 101.636 137.569 102.433 136.539 103.011C135.51 103.588 134.379 103.877 133.149 103.877ZM133.149 101.523C133.94 101.523 134.637 101.347 135.24 100.995C135.842 100.631 136.313 100.116 136.652 99.4507C136.991 98.7851 137.161 98.0128 137.161 97.1338C137.161 96.2548 136.991 95.4888 136.652 94.8358C136.313 94.1702 135.842 93.6616 135.24 93.31C134.637 92.9584 133.94 92.7826 133.149 92.7826C132.358 92.7826 131.654 92.9584 131.039 93.31C130.436 93.6616 129.965 94.1702 129.626 94.8358C129.287 95.4888 129.118 96.2548 129.118 97.1338C129.118 98.0128 129.287 98.7851 129.626 99.4507C129.965 100.116 130.436 100.631 131.039 100.995C131.654 101.347 132.358 101.523 133.149 101.523Z" fill="url(#paint1_linear_433_1334)"/>
<defs>
<linearGradient id="paint0_linear_433_1334" x1="47.7271" y1="34.7847" x2="47.7271" y2="47.9888" gradientUnits="userSpaceOnUse">
<stop stop-color="#FF725E"/>
<stop offset="1" stop-color="#FFE033"/>
</linearGradient>
<linearGradient id="paint1_linear_433_1334" x1="71.3091" y1="82.7454" x2="71.3091" y2="110.745" gradientUnits="userSpaceOnUse">
<stop stop-color="#FF725E"/>
<stop offset="1" stop-color="#FFE033"/>
</linearGradient>
</defs>
</svg>
